<svg width="33" height="32" viewBox="0 0 33 32" fill="none" xmlns="http://www.w3.org/2000/svg">
<path d="M16.7201 0.078125C7.93006 0.078125 0.810059 7.19812 0.810059 15.9881C0.810059 24.7781 7.93006 31.8981 16.7201 31.8981C25.5101 31.8981 32.6301 24.7781 32.6301 15.9881C32.6301 7.19812 25.5101 0.078125 16.7201 0.078125ZM16.6001 9.84813L19.2801 5.20813C19.5801 4.67813 20.2601 4.49813 20.7801 4.80813C21.3101 5.10813 21.4901 5.78813 21.1801 6.30813L18.5001 10.9481C18.3001 11.2981 17.9301 11.4981 17.5501 11.4981C17.3601 11.4981 17.1701 11.4481 17.0001 11.3481C16.4701 11.0481 16.2901 10.3681 16.6001 9.84813ZM20.5001 14.4281C20.5401 15.0381 20.0801 15.5581 19.4701 15.5981L14.1301 15.9281C14.1301 15.9281 14.0801 15.9281 14.0601 15.9281C13.4801 15.9281 13.0001 15.4781 12.9601 14.8981C12.9201 14.2881 13.3801 13.7681 13.9901 13.7281L19.3301 13.3981C19.9401 13.3681 20.4601 13.8181 20.4901 14.4281M10.4301 8.54813L14.5201 5.09813C14.9901 4.70813 15.6801 4.76812 16.0701 5.22812C16.4601 5.68812 16.4001 6.38812 15.9401 6.77812L11.8501 10.2281C11.6401 10.3981 11.3901 10.4881 11.1401 10.4881C10.8301 10.4881 10.5201 10.3581 10.3001 10.0981C9.91006 9.63813 9.97006 8.93813 10.4301 8.54813ZM7.41006 18.9781C7.34006 18.9881 7.27006 18.9981 7.20006 18.9981C6.68006 18.9981 6.22006 18.6381 6.12006 18.1081L5.10006 12.8581C4.98006 12.2581 5.37006 11.6881 5.97006 11.5681C6.57006 11.4481 7.14006 11.8381 7.26006 12.4381L8.28006 17.6881C8.40006 18.2881 8.01006 18.8581 7.41006 18.9781ZM13.6701 25.4681L10.9001 26.2381C10.8001 26.2681 10.7001 26.2781 10.6101 26.2781C10.1301 26.2781 9.69006 25.9581 9.55006 25.4681C9.39006 24.8881 9.73006 24.2781 10.3201 24.1181L13.0901 23.3481C13.6801 23.1881 14.2801 23.5281 14.4401 24.1181C14.6001 24.6981 14.2601 25.3081 13.6701 25.4681ZM17.0501 20.7181C16.8601 21.1081 16.4701 21.3281 16.0601 21.3281C15.8901 21.3281 15.7301 21.2881 15.5701 21.2081L10.7901 18.8081C10.2501 18.5381 10.0301 17.8781 10.3001 17.3281C10.5701 16.7781 11.2301 16.5681 11.7801 16.8381L16.5601 19.2381C17.1001 19.5081 17.3201 20.1681 17.0501 20.7181ZM23.0401 23.4981L18.9601 26.8581C18.7501 27.0281 18.5101 27.1081 18.2601 27.1081C17.9401 27.1081 17.6301 26.9681 17.4101 26.7081C17.0201 26.2381 17.0901 25.5481 17.5601 25.1581L21.6401 21.7981C22.1101 21.4081 22.8001 21.4781 23.1901 21.9481C23.5801 22.4181 23.5101 23.1081 23.0401 23.4981ZM26.2801 22.1881C26.1601 22.2281 26.0501 22.2481 25.9301 22.2481C25.4701 22.2481 25.0401 21.9581 24.8901 21.4981L23.1901 16.4281C23.0001 15.8481 23.3101 15.2281 23.8801 15.0381C24.4601 14.8481 25.0801 15.1581 25.2701 15.7281L26.9801 20.7981C27.1701 21.3781 26.8601 21.9981 26.2901 22.1881M27.4201 14.2581C27.1701 14.2581 26.9101 14.1681 26.7001 13.9881L22.6301 10.4881C22.1701 10.0881 22.1201 9.39812 22.5101 8.93812C22.9101 8.47812 23.6001 8.42812 24.0601 8.81812L28.1301 12.3181C28.5901 12.7181 28.6401 13.4081 28.2501 13.8681C28.0301 14.1181 27.7201 14.2481 27.4201 14.2481" fill="white"/>
</svg>
