<svg width="48" height="46" viewBox="0 0 48 46" fill="none" xmlns="http://www.w3.org/2000/svg">
<path d="M23.653 0C10.593 0 0 10.2986 0 22.9957C0 35.6928 10.593 45.9914 23.653 45.9914C36.7131 45.9914 47.3061 35.6928 47.3061 22.9957C47.3061 10.2986 36.7219 0 23.653 0ZM22.5212 24.1133C22.5212 28.4201 18.9136 31.9275 14.4836 31.9275H7.67508V27.4745H14.4836C16.3847 27.4745 17.9321 25.9701 17.9321 24.1218V11.9062H22.5124V24.1218L22.5212 24.1133ZM39.631 31.9189H32.8225C28.3925 31.9189 24.7849 28.4115 24.7849 24.1047V11.889H29.3651V24.1047C29.3651 25.9529 30.9125 27.4573 32.8136 27.4573H39.6222V31.9103L39.631 31.9189Z" fill="#06A5DA"/>
</svg>
