<svg width="924" height="820" viewBox="0 0 924 820" fill="none" xmlns="http://www.w3.org/2000/svg">
<g clip-path="url(#clip0_2_998)">
<path d="M661.71 328H583.61C571.67 328 562 337.67 562 349.61C562 361.55 571.67 371.22 583.61 371.22H661.71C673.64 371.22 683.32 361.54 683.32 349.61C683.32 337.68 673.64 328 661.71 328Z" fill="#4A3D90"/>
<path d="M580.08 342.93H585.58C586.34 342.93 586.99 343.04 587.53 343.26C588.06 343.48 588.5 343.78 588.84 344.14C589.18 344.5 589.42 344.92 589.58 345.4C589.74 345.88 589.81 346.35 589.81 346.84C589.81 347.33 589.73 347.83 589.58 348.29C589.43 348.76 589.18 349.17 588.84 349.54C588.5 349.9 588.07 350.2 587.53 350.42C586.99 350.64 586.34 350.75 585.58 350.75H582.76V355.13H580.08V342.93ZM584.85 348.67C585.16 348.67 585.45 348.65 585.74 348.6C586.02 348.55 586.28 348.47 586.49 348.33C586.71 348.2 586.88 348.01 587.01 347.77C587.14 347.53 587.21 347.22 587.21 346.83C587.21 346.44 587.14 346.13 587.01 345.89C586.88 345.65 586.71 345.47 586.49 345.34C586.27 345.21 586.02 345.12 585.74 345.08C585.45 345.03 585.16 345.01 584.85 345.01H582.77V348.67H584.85Z" fill="white"/>
</g>
<g clip-path="url(#clip1_2_998)">
<path d="M661.71 608H583.61C571.67 608 562 617.67 562 629.61C562 641.55 571.67 651.22 583.61 651.22H661.71C673.64 651.22 683.32 641.55 683.32 629.61C683.32 617.67 673.64 608 661.71 608Z" fill="#BF7CB3"/>
<path d="M585.55 635.399C584.6 635.399 583.76 635.239 583.02 634.909C582.28 634.589 581.65 634.139 581.14 633.569C580.63 632.999 580.24 632.329 579.96 631.559C579.69 630.789 579.55 629.959 579.55 629.069C579.55 628.179 579.69 627.329 579.96 626.539C580.23 625.749 580.63 625.069 581.14 624.489C581.65 623.909 582.28 623.449 583.02 623.119C583.76 622.789 584.6 622.629 585.55 622.629C586.5 622.629 587.32 622.789 588.07 623.119C588.82 623.449 589.45 623.909 589.96 624.489C590.47 625.069 590.87 625.749 591.14 626.539C591.41 627.329 591.55 628.169 591.55 629.069C591.55 629.969 591.41 630.789 591.14 631.559C590.87 632.329 590.47 632.999 589.96 633.569C589.45 634.139 588.82 634.589 588.07 634.909C587.32 635.229 586.48 635.399 585.55 635.399ZM585.55 633.159C586.15 633.159 586.67 633.039 587.09 632.809C587.51 632.579 587.85 632.269 588.12 631.879C588.38 631.489 588.57 631.059 588.69 630.569C588.81 630.089 588.87 629.589 588.87 629.069C588.87 628.549 588.81 628.019 588.69 627.519C588.57 627.019 588.38 626.569 588.12 626.179C587.86 625.789 587.52 625.469 587.09 625.239C586.67 625.009 586.16 624.889 585.55 624.889C584.94 624.889 584.43 625.009 584.01 625.239C583.59 625.469 583.25 625.789 582.98 626.179C582.72 626.569 582.53 627.019 582.41 627.519C582.29 628.019 582.23 628.539 582.23 629.069C582.23 629.599 582.29 630.079 582.41 630.569C582.53 631.059 582.72 631.489 582.98 631.879C583.24 632.269 583.58 632.579 584.01 632.809C584.43 633.039 584.94 633.159 585.55 633.159Z" fill="white"/>
</g>
<path d="M518.83 160.344H522.933V173.728H520.356V162.54H520.317L517.779 173.728H515.053L512.616 162.54H512.577V173.728H510V160.344H514.088L516.439 170.762H516.478L518.83 160.344Z" fill="white"/>
<path d="M533.709 173.728V164.665H533.67L528.384 173.728H525.542V160.344H528.228V169.462H528.259L533.561 160.344H536.396V173.728H533.709Z" fill="white"/>
<path d="M551.174 173.728H547.631L543.489 167.803L542.119 169.197V173.728H539.323V160.344H542.119V165.786L547.242 160.344H550.855L545.389 165.825L551.174 173.728Z" fill="white"/>
<path d="M560.417 168.605C559.872 168.815 559.249 168.924 558.556 168.924H555.496V173.728H552.701V160.344H558.782C559.49 160.344 560.113 160.437 560.635 160.632C561.157 160.827 561.593 161.107 561.943 161.481C562.293 161.854 562.55 162.298 562.714 162.828C562.885 163.357 562.971 163.957 562.971 164.634C562.971 165.257 562.87 165.833 562.667 166.363C562.465 166.892 562.177 167.344 561.795 167.717C561.414 168.091 560.954 168.395 560.409 168.605M555.504 166.612H558.151C558.782 166.612 559.28 166.456 559.638 166.145C559.997 165.833 560.183 165.335 560.183 164.634C560.183 164.284 560.137 163.98 560.043 163.731C559.95 163.482 559.817 163.279 559.646 163.116C559.475 162.952 559.257 162.835 559.008 162.758C558.758 162.68 558.47 162.641 558.159 162.641H555.512V166.604L555.504 166.612Z" fill="white"/>
<path d="M568.047 173.525C567.238 173.167 566.568 172.676 566.039 172.045C565.501 171.415 565.104 170.675 564.839 169.811C564.575 168.954 564.435 168.028 564.435 167.031C564.435 166.034 564.567 165.1 564.839 164.244C565.104 163.387 565.509 162.647 566.039 162.017C566.568 161.386 567.245 160.895 568.047 160.537C568.857 160.179 569.792 160 570.874 160C571.863 160 572.758 160.179 573.552 160.537C574.347 160.895 575.024 161.386 575.577 162.017C576.13 162.647 576.558 163.387 576.854 164.244C577.15 165.1 577.298 166.027 577.298 167.031C577.298 168.036 577.15 168.954 576.854 169.811C576.558 170.667 576.13 171.415 575.577 172.045C575.024 172.676 574.347 173.167 573.552 173.525C572.758 173.883 571.863 174.062 570.874 174.062C569.799 174.062 568.857 173.883 568.047 173.525ZM567.23 167.039C567.23 167.708 567.316 168.324 567.487 168.876C567.65 169.445 567.892 169.928 568.203 170.34C568.515 170.753 568.896 171.072 569.348 171.298C569.799 171.532 570.305 171.641 570.882 171.641C571.458 171.641 571.964 171.524 572.408 171.298C572.859 171.064 573.241 170.745 573.552 170.34C573.864 169.928 574.105 169.445 574.269 168.884C574.432 168.324 574.518 167.708 574.518 167.039C574.518 166.369 574.44 165.754 574.269 165.193C574.105 164.633 573.864 164.15 573.552 163.737C573.241 163.325 572.859 163.006 572.408 162.78C571.956 162.546 571.45 162.437 570.882 162.437C570.313 162.437 569.799 162.554 569.348 162.78C568.896 163.013 568.515 163.333 568.203 163.737C567.892 164.15 567.65 164.633 567.487 165.193C567.323 165.754 567.238 166.369 567.238 167.039" fill="white"/>
<path d="M582.514 163.154C582.304 163.364 582.133 163.582 582.016 163.823C581.891 164.065 581.806 164.283 581.744 164.493H578.948C579.049 163.792 579.252 163.169 579.556 162.616C579.859 162.063 580.256 161.588 580.739 161.207C581.222 160.818 581.798 160.522 582.452 160.319C583.106 160.109 583.838 160.008 584.64 160.008C585.317 160.008 585.94 160.093 586.509 160.265C587.077 160.436 587.591 160.677 588.043 160.989C588.502 161.3 588.899 161.666 589.234 162.095C589.577 162.523 589.857 162.998 590.083 163.512C590.309 164.026 590.48 164.578 590.597 165.155C590.713 165.731 590.768 166.33 590.768 166.945C590.768 167.927 590.667 168.783 590.472 169.515C590.277 170.247 590.013 170.878 589.686 171.407C589.359 171.937 588.985 172.373 588.564 172.715C588.144 173.058 587.708 173.33 587.256 173.533C586.805 173.735 586.353 173.875 585.901 173.953C585.45 174.031 585.037 174.07 584.663 174.07C583.846 174.07 583.106 173.945 582.46 173.704C581.814 173.463 581.245 173.128 580.77 172.707C580.295 172.287 579.906 171.796 579.602 171.228C579.299 170.66 579.081 170.052 578.956 169.398H581.751C581.845 169.671 581.962 169.943 582.102 170.208C582.242 170.473 582.429 170.714 582.647 170.924C582.865 171.135 583.129 171.306 583.433 171.438C583.737 171.571 584.103 171.633 584.515 171.633C585.037 171.633 585.504 171.539 585.917 171.368C586.33 171.197 586.68 170.955 586.968 170.652C587.256 170.348 587.474 169.982 587.63 169.554C587.786 169.126 587.856 168.651 587.856 168.121H583.464V165.918H587.817C587.817 165.707 587.794 165.474 587.739 165.217C587.685 164.96 587.607 164.703 587.49 164.446C587.381 164.189 587.233 163.94 587.054 163.691C586.875 163.442 586.657 163.224 586.408 163.037C586.158 162.85 585.862 162.694 585.528 162.585C585.193 162.468 584.819 162.414 584.399 162.414C583.978 162.414 583.589 162.484 583.277 162.624C582.966 162.764 582.709 162.935 582.507 163.146" fill="white"/>
<path d="M594.606 160.344H603.95V173.728H601.155V162.648H597.23V164.673C597.246 165.895 597.223 166.97 597.16 167.904C597.106 168.839 597.012 169.648 596.888 170.334C596.763 171.027 596.608 171.603 596.413 172.07C596.218 172.537 595.992 172.911 595.735 173.191C595.471 173.471 595.175 173.674 594.84 173.799C594.505 173.923 594.139 173.978 593.742 173.978C593.415 173.978 593.127 173.962 592.87 173.915C592.621 173.876 592.372 173.806 592.123 173.705V171.143C592.2 171.182 592.286 171.221 592.38 171.245C592.473 171.276 592.566 171.291 592.66 171.307C592.753 171.322 592.831 171.33 592.909 171.338C592.987 171.338 593.041 171.346 593.088 171.346C593.252 171.346 593.407 171.322 593.547 171.276C593.688 171.229 593.82 171.136 593.929 170.98C594.038 170.832 594.139 170.606 594.225 170.326C594.311 170.038 594.381 169.664 594.443 169.189C594.497 168.714 594.544 168.13 594.567 167.429C594.591 166.729 594.606 165.895 594.606 164.922V160.328V160.344Z" fill="white"/>
<path d="M615.817 167.928H609.253V171.307H616.712V173.728H606.566V160.344H616.393V162.649H609.253V165.615H615.817V167.928Z" fill="white"/>
<path d="M627.605 160.344H631.709V173.728H629.131V162.54H629.092L626.554 173.728H623.829L621.392 162.54H621.353V173.728H618.775V160.344H622.863L625.215 170.762H625.254L627.605 160.344Z" fill="white"/>
<path d="M643.793 167.928H637.229V171.307H644.689V173.728H634.543V160.344H644.369V162.649H637.229V165.615H643.793V167.928Z" fill="white"/>
<path d="M654.811 173.728V167.749H649.563V173.728H646.752V160.344H649.563V165.436H654.811V160.344H657.606V173.728H654.811Z" fill="white"/>
<path d="M659.148 160.344H670.111V162.649H666.023V173.728H663.228V162.649H659.148V160.344Z" fill="white"/>
<path d="M674.658 165.615H677.329C677.531 165.615 677.788 165.615 678.1 165.631C678.411 165.646 678.746 165.685 679.104 165.763C679.462 165.841 679.82 165.958 680.179 166.121C680.537 166.285 680.864 166.518 681.152 166.822C681.44 167.126 681.681 167.507 681.86 167.967C682.039 168.434 682.133 169.002 682.133 169.68C682.133 170.357 682.039 170.925 681.86 171.385C681.681 171.844 681.448 172.226 681.16 172.529C680.872 172.833 680.568 173.059 680.218 173.222C679.875 173.386 679.54 173.503 679.213 173.581C678.886 173.658 678.59 173.697 678.318 173.713C678.045 173.729 677.85 173.728 677.718 173.728H671.847V160.344H674.642V165.615H674.658ZM674.658 167.819V171.416H677.025C677.282 171.416 677.539 171.4 677.811 171.361C678.084 171.323 678.333 171.245 678.559 171.128C678.785 171.003 678.972 170.824 679.12 170.583C679.268 170.341 679.338 170.022 679.338 169.625C679.338 169.228 679.268 168.878 679.12 168.636C678.972 168.395 678.793 168.216 678.559 168.091C678.325 167.967 678.068 167.897 677.78 167.865C677.492 167.834 677.204 167.819 676.908 167.819H674.65H674.658ZM686.742 173.728H683.947V160.344H686.742V173.728Z" fill="white"/>
<path d="M240.83 160.344H244.933V173.728H242.356V162.54H242.325L239.779 173.728H237.061L234.616 162.54H234.577V173.728H232V160.344H236.096L238.439 170.762H238.478L240.83 160.344Z" fill="white"/>
<path d="M255.709 173.728V164.665H255.67L250.384 173.728H247.542V160.344H250.228V169.462H250.259L255.561 160.344H258.396V173.728H255.709Z" fill="white"/>
<path d="M273.174 173.728H269.631L265.489 167.803L264.126 169.197V173.728H261.331V160.344H264.126V165.786L269.242 160.344H272.855L267.397 165.825L273.174 173.728Z" fill="white"/>
<path d="M282.417 168.605C281.872 168.815 281.249 168.924 280.556 168.924H277.496V173.728H274.701V160.344H280.782C281.49 160.344 282.113 160.437 282.635 160.632C283.157 160.827 283.593 161.107 283.943 161.481C284.286 161.854 284.55 162.298 284.714 162.828C284.885 163.357 284.971 163.957 284.971 164.634C284.971 165.257 284.87 165.833 284.667 166.363C284.465 166.892 284.177 167.344 283.795 167.717C283.414 168.099 282.954 168.395 282.409 168.605M277.504 166.612H280.151C280.782 166.612 281.28 166.456 281.638 166.145C281.996 165.833 282.183 165.335 282.183 164.634C282.183 164.284 282.137 163.98 282.043 163.731C281.95 163.482 281.817 163.279 281.646 163.116C281.475 162.952 281.265 162.835 281.008 162.758C280.758 162.68 280.47 162.641 280.159 162.641H277.512V166.604L277.504 166.612Z" fill="white"/>
<path d="M290.055 173.525C289.245 173.167 288.575 172.676 288.046 172.045C287.509 171.415 287.112 170.675 286.847 169.811C286.582 168.954 286.45 168.028 286.45 167.031C286.45 166.034 286.582 165.1 286.847 164.244C287.112 163.387 287.516 162.647 288.046 162.017C288.583 161.386 289.253 160.895 290.055 160.537C290.865 160.179 291.807 160 292.873 160C293.862 160 294.758 160.179 295.552 160.537C296.346 160.895 297.024 161.386 297.576 162.017C298.129 162.647 298.557 163.387 298.853 164.244C299.149 165.1 299.297 166.027 299.297 167.031C299.297 168.036 299.149 168.954 298.853 169.811C298.557 170.667 298.129 171.415 297.576 172.045C297.024 172.676 296.346 173.167 295.552 173.525C294.758 173.883 293.862 174.062 292.873 174.062C291.799 174.062 290.857 173.883 290.055 173.525ZM289.229 167.039C289.229 167.708 289.315 168.324 289.486 168.876C289.65 169.445 289.891 169.928 290.203 170.34C290.514 170.753 290.896 171.072 291.347 171.298C291.799 171.524 292.305 171.641 292.873 171.641C293.442 171.641 293.956 171.524 294.407 171.298C294.859 171.064 295.241 170.745 295.552 170.34C295.863 169.928 296.105 169.445 296.268 168.884C296.432 168.324 296.517 167.708 296.517 167.039C296.517 166.369 296.44 165.754 296.268 165.193C296.105 164.633 295.863 164.15 295.552 163.737C295.241 163.325 294.859 163.006 294.407 162.78C293.956 162.546 293.45 162.437 292.873 162.437C292.297 162.437 291.791 162.554 291.347 162.78C290.896 163.013 290.514 163.333 290.203 163.737C289.891 164.15 289.65 164.633 289.479 165.193C289.315 165.754 289.229 166.369 289.229 167.039Z" fill="white"/>
<path d="M308.548 165.631C308.867 165.646 309.202 165.685 309.552 165.763C309.91 165.841 310.268 165.958 310.627 166.121C310.985 166.285 311.312 166.518 311.608 166.822C311.896 167.126 312.137 167.507 312.316 167.967C312.495 168.434 312.589 169.002 312.589 169.68C312.589 170.357 312.495 170.925 312.316 171.385C312.137 171.844 311.904 172.226 311.623 172.529C311.343 172.833 311.024 173.059 310.681 173.222C310.331 173.386 309.996 173.503 309.677 173.581C309.35 173.658 309.054 173.697 308.781 173.713C308.509 173.729 308.314 173.728 308.182 173.728H301.649V160.344H311.39V162.649H304.444V165.615H307.769C307.971 165.615 308.228 165.615 308.54 165.631M304.452 171.416H307.473C307.73 171.416 307.995 171.4 308.26 171.361C308.524 171.323 308.781 171.245 309.007 171.128C309.233 171.003 309.42 170.824 309.568 170.583C309.716 170.341 309.786 170.022 309.786 169.625C309.786 169.228 309.716 168.878 309.568 168.636C309.42 168.395 309.241 168.216 309.007 168.091C308.773 167.967 308.516 167.897 308.228 167.865C307.94 167.834 307.652 167.819 307.356 167.819H304.444V171.416H304.452Z" fill="white"/>
<path d="M322.976 173.728V164.665H322.937L317.65 173.728H314.808V160.344H317.494V169.462H317.526L322.828 160.344H325.662V173.728H322.976Z" fill="white"/>
<path d="M331.408 173.525C330.599 173.167 329.929 172.676 329.399 172.045C328.862 171.415 328.465 170.675 328.2 169.811C327.936 168.954 327.803 168.028 327.803 167.031C327.803 166.034 327.936 165.1 328.2 164.244C328.465 163.387 328.87 162.647 329.399 162.017C329.937 161.386 330.606 160.895 331.408 160.537C332.218 160.179 333.16 160 334.227 160C335.216 160 336.111 160.179 336.905 160.537C337.7 160.895 338.377 161.386 338.93 162.017C339.483 162.647 339.911 163.387 340.207 164.244C340.503 165.1 340.651 166.027 340.651 167.031C340.651 168.036 340.503 168.954 340.207 169.811C339.911 170.667 339.483 171.415 338.93 172.045C338.377 172.676 337.7 173.167 336.905 173.525C336.111 173.883 335.216 174.062 334.227 174.062C333.152 174.062 332.21 173.883 331.408 173.525ZM330.591 167.039C330.591 167.708 330.676 168.324 330.848 168.876C331.011 169.445 331.253 169.928 331.564 170.34C331.875 170.753 332.257 171.072 332.709 171.298C333.16 171.524 333.666 171.641 334.235 171.641C334.803 171.641 335.317 171.524 335.769 171.298C336.22 171.064 336.602 170.745 336.913 170.34C337.225 169.928 337.466 169.445 337.63 168.884C337.793 168.324 337.879 167.708 337.879 167.039C337.879 166.369 337.801 165.754 337.63 165.193C337.466 164.633 337.225 164.15 336.913 163.737C336.602 163.325 336.22 163.006 335.769 162.78C335.317 162.546 334.811 162.437 334.235 162.437C333.659 162.437 333.152 162.554 332.709 162.78C332.257 163.013 331.875 163.333 331.564 163.737C331.253 164.15 331.011 164.633 330.84 165.193C330.676 165.754 330.591 166.369 330.591 167.039Z" fill="white"/>
<path d="M344.498 160.344H353.841V173.728H351.046V162.648H347.122V164.673C347.137 165.895 347.114 166.97 347.051 167.904C346.989 168.839 346.904 169.648 346.779 170.334C346.654 171.027 346.499 171.603 346.304 172.07C346.109 172.537 345.883 172.911 345.627 173.191C345.37 173.471 345.066 173.674 344.731 173.799C344.396 173.923 344.03 173.978 343.633 173.978C343.306 173.978 343.018 173.962 342.761 173.915C342.512 173.876 342.255 173.806 342.014 173.705V171.143C342.092 171.182 342.177 171.221 342.271 171.245C342.364 171.276 342.457 171.291 342.551 171.307C342.644 171.322 342.722 171.33 342.8 171.338C342.878 171.338 342.932 171.346 342.979 171.346C343.143 171.346 343.298 171.322 343.439 171.276C343.579 171.229 343.711 171.136 343.82 170.98C343.929 170.832 344.03 170.606 344.116 170.326C344.202 170.038 344.272 169.664 344.326 169.189C344.381 168.714 344.427 168.13 344.451 167.429C344.474 166.729 344.49 165.895 344.49 164.922V160.328L344.498 160.344Z" fill="white"/>
<path d="M359.354 173.525C358.544 173.167 357.874 172.676 357.345 172.045C356.807 171.415 356.41 170.675 356.146 169.811C355.881 168.954 355.749 168.028 355.749 167.031C355.749 166.034 355.881 165.1 356.146 164.244C356.41 163.387 356.815 162.647 357.345 162.017C357.882 161.386 358.552 160.895 359.354 160.537C360.163 160.179 361.106 160 362.18 160C363.169 160 364.064 160.179 364.859 160.537C365.653 160.895 366.33 161.386 366.883 162.017C367.436 162.647 367.864 163.387 368.16 164.244C368.456 165.1 368.604 166.027 368.604 167.031C368.604 168.036 368.456 168.954 368.16 169.811C367.864 170.667 367.436 171.415 366.883 172.045C366.33 172.676 365.653 173.167 364.859 173.525C364.064 173.883 363.169 174.062 362.18 174.062C361.106 174.062 360.163 173.883 359.354 173.525ZM358.536 167.039C358.536 167.708 358.622 168.324 358.793 168.876C358.957 169.445 359.198 169.928 359.509 170.34C359.821 170.753 360.202 171.072 360.654 171.298C361.106 171.524 361.612 171.641 362.188 171.641C362.764 171.641 363.27 171.524 363.722 171.298C364.173 171.064 364.555 170.745 364.866 170.34C365.178 169.928 365.419 169.445 365.583 168.884C365.746 168.324 365.832 167.708 365.832 167.039C365.832 166.369 365.746 165.754 365.583 165.193C365.419 164.633 365.178 164.15 364.866 163.737C364.555 163.325 364.173 163.006 363.722 162.78C363.27 162.546 362.764 162.437 362.188 162.437C361.612 162.437 361.106 162.554 360.654 162.78C360.202 163.013 359.821 163.333 359.509 163.737C359.198 164.15 358.957 164.633 358.785 165.193C358.622 165.754 358.536 166.369 358.536 167.039Z" fill="white"/>
<path d="M370.955 160.344H379.964V162.649H373.758V173.728H370.955V160.344Z" fill="white"/>
<path d="M389.682 173.728V164.665H389.65L384.356 173.728H381.514V160.344H384.2V169.462H384.239L389.541 160.344H392.368V173.728H389.682Z" fill="white"/>
<path d="M397.974 169.384C397.811 169.687 397.702 170.116 397.655 170.668L397.561 171.938C397.538 172.226 397.515 172.475 397.484 172.67C397.46 172.864 397.429 173.036 397.398 173.16C397.367 173.292 397.336 173.401 397.304 173.487C397.273 173.573 397.25 173.658 397.227 173.728H394.322C394.416 173.557 394.486 173.409 394.54 173.292C394.595 173.168 394.634 173.043 394.665 172.911C394.696 172.779 394.727 172.623 394.751 172.444C394.774 172.265 394.797 172.039 394.828 171.751L394.953 170.482C394.992 170.092 395.046 169.742 395.116 169.423C395.179 169.103 395.28 168.823 395.42 168.574C395.553 168.325 395.747 168.107 395.989 167.928C396.23 167.749 396.557 167.593 396.954 167.46C396.775 167.398 396.588 167.32 396.386 167.227C396.183 167.133 395.965 166.962 395.747 166.736C395.459 166.448 395.225 166.09 395.054 165.67C394.883 165.249 394.797 164.782 394.797 164.284C394.797 163.972 394.828 163.669 394.898 163.38C394.969 163.092 395.062 162.82 395.179 162.563C395.303 162.306 395.444 162.072 395.615 161.862C395.786 161.652 395.965 161.457 396.16 161.294C396.44 161.06 396.744 160.873 397.079 160.749C397.406 160.624 397.748 160.531 398.106 160.468C398.465 160.406 398.823 160.375 399.197 160.359C399.57 160.352 399.936 160.344 400.302 160.344H405.893V173.728H403.191V168.449H400.692C400.263 168.449 399.882 168.465 399.531 168.488C399.181 168.512 398.877 168.59 398.62 168.73C398.363 168.87 398.153 169.088 397.99 169.391M397.678 163.84C397.608 164.027 397.577 164.253 397.577 164.517C397.577 164.805 397.616 165.054 397.702 165.249C397.787 165.444 397.896 165.607 398.029 165.74C398.161 165.872 398.324 165.973 398.496 166.043C398.667 166.113 398.846 166.16 399.025 166.191C399.204 166.222 399.383 166.238 399.555 166.246C399.726 166.246 399.882 166.254 400.022 166.254H403.175V162.695H400.022C400.022 162.695 399.913 162.695 399.804 162.695C399.695 162.695 399.57 162.703 399.438 162.711C399.298 162.719 399.165 162.734 399.025 162.75C398.885 162.765 398.768 162.796 398.667 162.835C398.542 162.882 398.418 162.952 398.293 163.03C398.169 163.108 398.052 163.217 397.943 163.349C397.834 163.482 397.748 163.645 397.686 163.832" fill="white"/>
<path d="M471.26 233.258H462V234.538H471.26V233.258Z" fill="white"/>
<path d="M471.26 246.98H462V248.26H471.26V246.98Z" fill="white"/>
<path d="M471.26 260.711H462V261.991H471.26V260.711Z" fill="white"/>
<path d="M484.6 274.43H462V275.71H484.6V274.43Z" fill="white"/>
<path d="M471.26 288.148H462V289.428H471.26V288.148Z" fill="white"/>
<path d="M471.26 301.871H462V303.151H471.26V301.871Z" fill="white"/>
<path d="M471.26 315.602H462V316.882H471.26V315.602Z" fill="white"/>
<path d="M471.26 329.32H462V330.6H471.26V329.32Z" fill="white"/>
<path d="M484.6 343.039H462V344.319H484.6V343.039Z" fill="white"/>
<path d="M471.26 356.773H462V358.053H471.26V356.773Z" fill="white"/>
<path d="M471.26 370.492H462V371.772H471.26V370.492Z" fill="white"/>
<path d="M471.26 384.211H462V385.501H471.26V384.211Z" fill="white"/>
<path d="M471.26 397.93H462V399.22H471.26V397.93Z" fill="white"/>
<path d="M484.6 411.66H462V412.95H484.6V411.66Z" fill="white"/>
<path d="M471.26 425.383H462V426.673H471.26V425.383Z" fill="white"/>
<path d="M471.26 439.102H462V440.392H471.26V439.102Z" fill="white"/>
<path d="M471.26 452.828H462V454.118H471.26V452.828Z" fill="white"/>
<path d="M471.26 466.551H462V467.841H471.26V466.551Z" fill="white"/>
<path d="M484.6 480.273H462V481.563H484.6V480.273Z" fill="white"/>
<path d="M471.26 493.992H462V495.282H471.26V493.992Z" fill="white"/>
<path d="M471.26 507.719H462V509.009H471.26V507.719Z" fill="white"/>
<path d="M471.26 521.441H462V522.731H471.26V521.441Z" fill="white"/>
<path d="M471.26 535.16H462V536.45H471.26V535.16Z" fill="white"/>
<path d="M482.55 548.891H462V550.181H482.55V548.891Z" fill="white"/>
<path d="M471.26 562.609H462V563.899H471.26V562.609Z" fill="white"/>
<path d="M471.26 576.328H462V577.618H471.26V576.328Z" fill="white"/>
<path d="M471.26 590.051H462V591.341H471.26V590.051Z" fill="white"/>
<path d="M471.26 603.781H462V605.071H471.26V603.781Z" fill="white"/>
<path d="M482.55 617.5H462V618.79H482.55V617.5Z" fill="white"/>
<path d="M471.26 631.219H462V632.509H471.26V631.219Z" fill="white"/>
<path d="M471.26 644.953H462V646.243H471.26V644.953Z" fill="white"/>
<path d="M471.26 658.672H462V659.962H471.26V658.672Z" fill="white"/>
<path d="M482.55 672.391H462V673.681H482.55V672.391Z" fill="white"/>
<path d="M471.26 686.109H462V687.399H471.26V686.109Z" fill="white"/>
<path d="M471.26 699.84H462V701.13H471.26V699.84Z" fill="white"/>
<path d="M471.26 713.562H462V714.852H471.26V713.562Z" fill="white"/>
<path d="M471.26 727.281H462V728.571H471.26V727.281Z" fill="white"/>
<path d="M482.55 741.008H462V742.298H482.55V741.008Z" fill="white"/>
<path d="M483.82 490.78H475.27V489.49H483.82C489.67 489.49 494.44 484.73 494.44 478.87V236.9C494.44 231.05 489.68 226.28 483.82 226.28H473.61V225H483.82C490.38 225 495.72 230.34 495.72 236.9V478.87C495.72 485.43 490.38 490.77 483.82 490.77" fill="white"/>
<path d="M483.82 753.899H475.27V752.609H483.82C489.67 752.609 494.44 747.849 494.44 741.989V512.379C494.44 506.529 489.68 501.759 483.82 501.759H473.61V500.469H483.82C490.38 500.469 495.72 505.809 495.72 512.369V741.979C495.72 748.539 490.38 753.879 483.82 753.879" fill="white"/>
<path d="M545 631H495V632H545V631Z" fill="white"/>
<path d="M546 348H496V349H546V348Z" fill="white"/>
<path d="M398 600L390.5 595.67V604.33L398 600ZM398 639L390.5 634.67V643.33L398 639ZM180 214.75H718V213.25H180V214.75ZM718 768.25H180V769.75H718V768.25ZM154.75 574V240H153.25V574H154.75ZM154.75 743V665H153.25V743H154.75ZM180 600.75H391.25V599.25H180V600.75ZM180 639.75H391.25V638.25H180V639.75ZM743.25 240V316H744.75V240H743.25ZM743.25 667.5V743H744.75V667.5H743.25ZM154.75 665C154.75 651.055 166.055 639.75 180 639.75V638.25C165.226 638.25 153.25 650.226 153.25 665H154.75ZM153.25 574C153.25 588.774 165.226 600.75 180 600.75V599.25C166.055 599.25 154.75 587.945 154.75 574H153.25ZM180 768.25C166.055 768.25 154.75 756.945 154.75 743H153.25C153.25 757.774 165.226 769.75 180 769.75V768.25ZM718 769.75C732.774 769.75 744.75 757.774 744.75 743H743.25C743.25 756.945 731.945 768.25 718 768.25V769.75ZM718 214.75C731.945 214.75 743.25 226.055 743.25 240H744.75C744.75 225.226 732.774 213.25 718 213.25V214.75ZM180 213.25C165.226 213.25 153.25 225.226 153.25 240H154.75C154.75 226.055 166.055 214.75 180 214.75V213.25Z" fill="white"/>
<g clip-path="url(#clip2_2_998)">
<path d="M308.48 671H158.69C146.71 671 137 680.71 137 692.69C137 704.67 146.71 714.39 158.69 714.39H308.47C320.45 714.39 330.16 704.68 330.16 692.69C330.16 680.7 320.46 671 308.48 671Z" fill="#2E5A3B"/>
<path d="M159.72 677.078C150.93 677.078 143.81 684.198 143.81 692.988C143.81 701.778 150.93 708.898 159.72 708.898C168.51 708.898 175.63 701.778 175.63 692.988C175.63 684.198 168.51 677.078 159.72 677.078ZM159.6 686.848L162.28 682.208C162.58 681.678 163.26 681.498 163.78 681.808C164.31 682.108 164.49 682.788 164.18 683.308L161.5 687.938C161.3 688.288 160.93 688.488 160.55 688.488C160.36 688.488 160.17 688.438 160 688.338C159.47 688.038 159.29 687.358 159.6 686.838M163.5 691.428C163.54 692.038 163.08 692.558 162.47 692.598L157.13 692.928C157.13 692.928 157.08 692.928 157.06 692.928C156.48 692.928 156 692.478 155.96 691.898C155.92 691.288 156.38 690.768 156.99 690.738L162.33 690.408C162.94 690.378 163.46 690.828 163.49 691.438M153.43 685.548L157.52 682.098C157.99 681.708 158.68 681.768 159.07 682.228C159.46 682.688 159.4 683.388 158.94 683.778L154.85 687.228C154.64 687.398 154.39 687.488 154.14 687.488C153.83 687.488 153.52 687.358 153.3 687.098C152.91 686.638 152.97 685.938 153.43 685.548ZM150.41 695.978C150.34 695.988 150.27 695.998 150.2 695.998C149.68 695.998 149.22 695.628 149.12 695.108L148.1 689.858C147.98 689.258 148.37 688.688 148.97 688.568C149.57 688.448 150.14 688.838 150.26 689.438L151.28 694.698C151.4 695.298 151.01 695.868 150.41 695.988M156.67 702.468L153.9 703.238C153.8 703.268 153.7 703.278 153.61 703.278C153.13 703.278 152.69 702.958 152.55 702.468C152.39 701.888 152.73 701.278 153.32 701.118L156.09 700.348C156.68 700.188 157.28 700.528 157.44 701.118C157.6 701.708 157.26 702.308 156.67 702.468ZM160.05 697.718C159.86 698.098 159.47 698.328 159.06 698.328C158.89 698.328 158.73 698.288 158.57 698.208L153.79 695.808C153.25 695.538 153.03 694.878 153.3 694.328C153.57 693.778 154.23 693.568 154.78 693.838L159.56 696.238C160.1 696.508 160.32 697.168 160.05 697.718ZM166.04 700.498L161.96 703.858C161.75 704.028 161.51 704.108 161.26 704.108C160.94 704.108 160.63 703.968 160.41 703.708C160.02 703.238 160.09 702.548 160.56 702.158L164.64 698.798C165.11 698.408 165.8 698.478 166.19 698.948C166.58 699.418 166.51 700.108 166.04 700.498ZM169.28 699.188C169.16 699.228 169.05 699.248 168.93 699.248C168.47 699.248 168.04 698.958 167.89 698.498L166.19 693.428C166 692.848 166.31 692.228 166.88 692.038C167.46 691.848 168.08 692.158 168.27 692.728L169.98 697.798C170.17 698.378 169.86 698.998 169.29 699.188M170.42 691.258C170.17 691.258 169.91 691.168 169.7 690.988L165.63 687.488C165.17 687.088 165.12 686.398 165.51 685.938C165.91 685.478 166.6 685.428 167.06 685.818L171.13 689.318C171.59 689.718 171.64 690.408 171.25 690.868C171.03 691.118 170.72 691.248 170.42 691.248" fill="white"/>
<path d="M190.81 698.192C188.9 698.202 187.42 697.772 186.39 696.902C185.36 696.032 184.84 694.742 184.84 693.032C184.84 691.322 185.35 690.132 186.36 689.292C187.37 688.452 188.86 688.002 190.8 687.962V686.762H193.45V687.962C195.43 687.962 196.92 688.392 197.92 689.262C198.92 690.132 199.41 691.382 199.41 693.042C199.41 694.702 198.89 696.042 197.86 696.902C196.83 697.772 195.36 698.202 193.44 698.202V699.532H190.79V698.202L190.81 698.192ZM190.81 689.892C189.66 689.942 188.81 690.212 188.25 690.712C187.7 691.212 187.42 691.992 187.42 693.032C187.42 694.002 187.7 694.762 188.27 695.322C188.84 695.882 189.68 696.172 190.8 696.192V689.882L190.81 689.892ZM193.46 696.202C194.66 696.182 195.52 695.892 196.06 695.332C196.6 694.772 196.86 694.012 196.86 693.042C196.86 692.002 196.6 691.232 196.08 690.722C195.56 690.212 194.69 689.942 193.46 689.892V696.202Z" fill="white"/>
</g>
<g clip-path="url(#clip3_2_998)">
<path d="M278.29 520H158.69C146.71 520 137 529.71 137 541.69C137 553.67 146.71 563.39 158.69 563.39H278.29C290.27 563.39 299.98 553.68 299.98 541.69C299.98 529.7 290.27 520 278.29 520Z" fill="#03A438"/>
<path d="M159.72 526.078C150.93 526.078 143.81 533.198 143.81 541.988C143.81 550.778 150.93 557.898 159.72 557.898C168.51 557.898 175.63 550.778 175.63 541.988C175.63 533.198 168.51 526.078 159.72 526.078ZM159.6 535.848L162.28 531.208C162.58 530.678 163.26 530.498 163.78 530.808C164.31 531.108 164.49 531.788 164.18 532.308L161.5 536.948C161.3 537.298 160.93 537.498 160.55 537.498C160.36 537.498 160.17 537.448 160 537.348C159.47 537.048 159.29 536.368 159.6 535.848ZM163.5 540.428C163.54 541.038 163.08 541.558 162.47 541.598L157.13 541.928C157.13 541.928 157.08 541.928 157.06 541.928C156.48 541.928 156 541.478 155.96 540.898C155.92 540.288 156.38 539.768 156.99 539.728L162.33 539.398C162.94 539.368 163.46 539.818 163.49 540.428M153.43 534.548L157.52 531.098C157.99 530.708 158.68 530.768 159.07 531.228C159.46 531.688 159.4 532.388 158.94 532.778L154.85 536.228C154.64 536.398 154.39 536.488 154.14 536.488C153.83 536.488 153.52 536.358 153.3 536.098C152.91 535.638 152.97 534.938 153.43 534.548ZM150.41 544.978C150.34 544.988 150.27 544.998 150.2 544.998C149.68 544.998 149.22 544.638 149.12 544.108L148.1 538.858C147.98 538.258 148.37 537.688 148.97 537.568C149.57 537.448 150.14 537.838 150.26 538.438L151.28 543.688C151.4 544.288 151.01 544.858 150.41 544.978ZM156.67 551.468L153.9 552.238C153.8 552.268 153.7 552.278 153.61 552.278C153.13 552.278 152.69 551.958 152.55 551.468C152.39 550.888 152.73 550.278 153.32 550.118L156.09 549.348C156.68 549.188 157.28 549.528 157.44 550.118C157.6 550.698 157.26 551.308 156.67 551.468ZM160.05 546.718C159.86 547.108 159.47 547.328 159.06 547.328C158.89 547.328 158.73 547.288 158.57 547.208L153.79 544.808C153.25 544.538 153.03 543.878 153.3 543.328C153.57 542.778 154.23 542.568 154.78 542.838L159.56 545.238C160.1 545.508 160.32 546.168 160.05 546.718ZM166.04 549.498L161.96 552.858C161.75 553.028 161.51 553.108 161.26 553.108C160.94 553.108 160.63 552.968 160.41 552.708C160.02 552.238 160.09 551.548 160.56 551.158L164.64 547.798C165.11 547.408 165.8 547.478 166.19 547.948C166.58 548.418 166.51 549.108 166.04 549.498ZM169.28 548.188C169.16 548.228 169.05 548.248 168.93 548.248C168.47 548.248 168.04 547.958 167.89 547.498L166.19 542.428C166 541.848 166.31 541.228 166.88 541.038C167.46 540.848 168.08 541.158 168.27 541.728L169.98 546.798C170.17 547.378 169.86 547.998 169.29 548.188M170.42 540.258C170.17 540.258 169.91 540.168 169.7 539.988L165.63 536.488C165.17 536.088 165.12 535.398 165.51 534.938C165.91 534.478 166.6 534.428 167.06 534.818L171.13 538.318C171.59 538.718 171.64 539.408 171.25 539.868C171.03 540.118 170.72 540.248 170.42 540.248" fill="white"/>
<path d="M188.76 536.051H191.51L196.07 548.251H193.29L192.37 545.531H187.81L186.85 548.251H184.15L188.76 536.051ZM191.66 543.541L190.12 539.061H190.09L188.5 543.541H191.66Z" fill="white"/>
</g>
<g clip-path="url(#clip4_2_998)">
<path d="M278.29 520H158.69C146.71 520 137 529.71 137 541.69C137 553.67 146.71 563.39 158.69 563.39H278.29C290.27 563.39 299.98 553.68 299.98 541.69C299.98 529.7 290.27 520 278.29 520Z" fill="#03A438"/>
<path d="M159.72 526.078C150.93 526.078 143.81 533.198 143.81 541.988C143.81 550.778 150.93 557.898 159.72 557.898C168.51 557.898 175.63 550.778 175.63 541.988C175.63 533.198 168.51 526.078 159.72 526.078ZM159.6 535.848L162.28 531.208C162.58 530.678 163.26 530.498 163.78 530.808C164.31 531.108 164.49 531.788 164.18 532.308L161.5 536.948C161.3 537.298 160.93 537.498 160.55 537.498C160.36 537.498 160.17 537.448 160 537.348C159.47 537.048 159.29 536.368 159.6 535.848ZM163.5 540.428C163.54 541.038 163.08 541.558 162.47 541.598L157.13 541.928C157.13 541.928 157.08 541.928 157.06 541.928C156.48 541.928 156 541.478 155.96 540.898C155.92 540.288 156.38 539.768 156.99 539.728L162.33 539.398C162.94 539.368 163.46 539.818 163.49 540.428M153.43 534.548L157.52 531.098C157.99 530.708 158.68 530.768 159.07 531.228C159.46 531.688 159.4 532.388 158.94 532.778L154.85 536.228C154.64 536.398 154.39 536.488 154.14 536.488C153.83 536.488 153.52 536.358 153.3 536.098C152.91 535.638 152.97 534.938 153.43 534.548ZM150.41 544.978C150.34 544.988 150.27 544.998 150.2 544.998C149.68 544.998 149.22 544.638 149.12 544.108L148.1 538.858C147.98 538.258 148.37 537.688 148.97 537.568C149.57 537.448 150.14 537.838 150.26 538.438L151.28 543.688C151.4 544.288 151.01 544.858 150.41 544.978ZM156.67 551.468L153.9 552.238C153.8 552.268 153.7 552.278 153.61 552.278C153.13 552.278 152.69 551.958 152.55 551.468C152.39 550.888 152.73 550.278 153.32 550.118L156.09 549.348C156.68 549.188 157.28 549.528 157.44 550.118C157.6 550.698 157.26 551.308 156.67 551.468ZM160.05 546.718C159.86 547.108 159.47 547.328 159.06 547.328C158.89 547.328 158.73 547.288 158.57 547.208L153.79 544.808C153.25 544.538 153.03 543.878 153.3 543.328C153.57 542.778 154.23 542.568 154.78 542.838L159.56 545.238C160.1 545.508 160.32 546.168 160.05 546.718ZM166.04 549.498L161.96 552.858C161.75 553.028 161.51 553.108 161.26 553.108C160.94 553.108 160.63 552.968 160.41 552.708C160.02 552.238 160.09 551.548 160.56 551.158L164.64 547.798C165.11 547.408 165.8 547.478 166.19 547.948C166.58 548.418 166.51 549.108 166.04 549.498ZM169.28 548.188C169.16 548.228 169.05 548.248 168.93 548.248C168.47 548.248 168.04 547.958 167.89 547.498L166.19 542.428C166 541.848 166.31 541.228 166.88 541.038C167.46 540.848 168.08 541.158 168.27 541.728L169.98 546.798C170.17 547.378 169.86 547.998 169.29 548.188M170.42 540.258C170.17 540.258 169.91 540.168 169.7 539.988L165.63 536.488C165.17 536.088 165.12 535.398 165.51 534.938C165.91 534.478 166.6 534.428 167.06 534.818L171.13 538.318C171.59 538.718 171.64 539.408 171.25 539.868C171.03 540.118 170.72 540.248 170.42 540.248" fill="white"/>
<path d="M188.76 536.051H191.51L196.07 548.251H193.29L192.37 545.531H187.81L186.85 548.251H184.15L188.76 536.051ZM191.66 543.541L190.12 539.061H190.09L188.5 543.541H191.66Z" fill="white"/>
</g>
<g clip-path="url(#clip5_2_998)">
<g filter="url(#filter0_b_2_998)">
<circle cx="316.021" cy="214.021" r="25.0215" fill="#C1D1D5"/>
<circle cx="316.021" cy="214.021" r="24.2715" stroke="white" stroke-width="1.5"/>
</g>
<path d="M309.255 205.887H311.679L320.703 219.783H320.751V205.887H322.911V223.023H320.415L311.463 209.271H311.415V223.023H309.255V205.887Z" fill="white"/>
</g>
<g clip-path="url(#clip6_2_998)">
<rect x="721.542" y="327.647" width="46.9406" height="46.9406" rx="9.71053" fill="#AEAEAE" fill-opacity="0.23" stroke="white" stroke-width="1.29474"/>
<path d="M732.856 343.649H735.549L740.21 356.078L744.892 343.649H747.585V358.44H745.721V346.135H745.679L741.06 358.44H739.382L734.762 346.135H734.72V358.44H732.856V343.649ZM750.57 347.73H752.227V349.429H752.269C753.001 348.13 754.161 347.481 755.749 347.481C756.453 347.481 757.04 347.578 757.51 347.771C757.979 347.965 758.359 348.234 758.649 348.579C758.939 348.924 759.139 349.339 759.25 349.822C759.374 350.292 759.436 350.817 759.436 351.397V358.44H757.676V351.189C757.676 350.527 757.482 350.002 757.095 349.615C756.709 349.228 756.177 349.035 755.5 349.035C754.962 349.035 754.492 349.118 754.092 349.284C753.705 349.449 753.38 349.684 753.118 349.988C752.856 350.292 752.655 350.651 752.517 351.065C752.393 351.466 752.331 351.908 752.331 352.391V358.44H750.57V347.73Z" fill="white"/>
<rect x="721.542" y="383.651" width="46.9406" height="46.9406" rx="9.71053" fill="#AEAEAE" fill-opacity="0.23" stroke="white" stroke-width="1.29474"/>
<path d="M732.664 399.653H735.357L740.018 412.082L744.7 399.653H747.393V414.444H745.528V402.139H745.487L740.867 414.444H739.189L734.57 402.139H734.528V414.444H732.664V399.653ZM751.662 409.099C751.662 409.748 751.745 410.328 751.911 410.839C752.09 411.336 752.332 411.758 752.636 412.103C752.94 412.434 753.292 412.69 753.692 412.869C754.107 413.049 754.542 413.139 754.997 413.139C755.453 413.139 755.881 413.049 756.282 412.869C756.696 412.69 757.055 412.434 757.359 412.103C757.663 411.758 757.898 411.336 758.063 410.839C758.243 410.328 758.333 409.748 758.333 409.099C758.333 408.45 758.243 407.877 758.063 407.38C757.898 406.869 757.663 406.441 757.359 406.095C757.055 405.75 756.696 405.488 756.282 405.308C755.881 405.129 755.453 405.039 754.997 405.039C754.542 405.039 754.107 405.129 753.692 405.308C753.292 405.488 752.94 405.75 752.636 406.095C752.332 406.441 752.09 406.869 751.911 407.38C751.745 407.877 751.662 408.45 751.662 409.099ZM749.798 409.099C749.798 408.312 749.908 407.58 750.129 406.903C750.35 406.213 750.682 405.619 751.124 405.122C751.566 404.611 752.111 404.21 752.76 403.92C753.409 403.63 754.155 403.485 754.997 403.485C755.854 403.485 756.599 403.63 757.235 403.92C757.884 404.21 758.429 404.611 758.871 405.122C759.313 405.619 759.645 406.213 759.866 406.903C760.087 407.58 760.197 408.312 760.197 409.099C760.197 409.886 760.087 410.618 759.866 411.295C759.645 411.972 759.313 412.566 758.871 413.077C758.429 413.574 757.884 413.967 757.235 414.257C756.599 414.534 755.854 414.672 754.997 414.672C754.155 414.672 753.409 414.534 752.76 414.257C752.111 413.967 751.566 413.574 751.124 413.077C750.682 412.566 750.35 411.972 750.129 411.295C749.908 410.618 749.798 409.886 749.798 409.099Z" fill="white"/>
<rect x="721.542" y="439.655" width="46.9406" height="46.9406" rx="9.71053" fill="#AEAEAE" fill-opacity="0.23" stroke="white" stroke-width="1.29474"/>
<path d="M742.47 462.016H746.406C747.525 462.016 748.326 461.823 748.809 461.436C749.306 461.035 749.555 460.442 749.555 459.654C749.555 459.13 749.472 458.715 749.306 458.411C749.141 458.108 748.913 457.873 748.623 457.707C748.333 457.541 747.994 457.438 747.608 457.396C747.235 457.341 746.834 457.313 746.406 457.313H742.47V462.016ZM740.502 455.656H745.868C746.185 455.656 746.524 455.663 746.883 455.677C747.255 455.677 747.621 455.698 747.981 455.739C748.34 455.767 748.671 455.815 748.975 455.884C749.293 455.953 749.562 456.057 749.783 456.195C750.266 456.485 750.674 456.885 751.005 457.396C751.35 457.907 751.523 458.536 751.523 459.281C751.523 460.069 751.33 460.752 750.943 461.332C750.57 461.899 750.031 462.32 749.327 462.596V462.637C750.239 462.831 750.936 463.245 751.419 463.88C751.903 464.516 752.144 465.289 752.144 466.201C752.144 466.739 752.048 467.264 751.854 467.775C751.661 468.286 751.371 468.742 750.984 469.142C750.611 469.529 750.142 469.847 749.576 470.095C749.023 470.33 748.381 470.447 747.649 470.447H740.502V455.656ZM742.47 468.79H747.4C748.271 468.79 748.947 468.555 749.431 468.086C749.928 467.616 750.176 466.967 750.176 466.138C750.176 465.655 750.087 465.255 749.907 464.937C749.728 464.619 749.486 464.371 749.182 464.191C748.892 463.998 748.554 463.867 748.167 463.797C747.78 463.715 747.38 463.673 746.965 463.673H742.47V468.79Z" fill="white"/>
<rect x="721.542" y="495.659" width="46.9406" height="46.9406" rx="9.71053" fill="#AEAEAE" fill-opacity="0.23" stroke="white" stroke-width="1.29474"/>
<path d="M734.345 524.794L743.543 513.317H735.05V511.66H745.863V513.317L736.686 524.794H746.112V526.451H734.345V524.794ZM747.879 515.741H749.537V517.44H749.578C750.31 516.142 751.47 515.493 753.058 515.493C753.763 515.493 754.35 515.589 754.819 515.783C755.289 515.976 755.669 516.245 755.959 516.59C756.249 516.936 756.449 517.35 756.559 517.833C756.684 518.303 756.746 518.828 756.746 519.408V526.451H754.985V519.201C754.985 518.538 754.792 518.013 754.405 517.626C754.018 517.24 753.486 517.046 752.81 517.046C752.271 517.046 751.802 517.129 751.401 517.295C751.014 517.461 750.69 517.695 750.427 517.999C750.165 518.303 749.965 518.662 749.827 519.076C749.702 519.477 749.64 519.919 749.64 520.402V526.451H747.879V515.741Z" fill="white"/>
<rect x="721.542" y="551.662" width="46.9406" height="46.9406" rx="9.71053" fill="#AEAEAE" fill-opacity="0.23" stroke="white" stroke-width="1.29474"/>
<path d="M736.082 567.664H745.798V569.321H738.05V574.023H744.845V575.681H738.05V582.455H736.082V567.664ZM755.124 576.074C755.097 575.66 755 575.266 754.834 574.893C754.682 574.52 754.468 574.203 754.192 573.94C753.93 573.664 753.612 573.45 753.239 573.298C752.88 573.132 752.479 573.05 752.038 573.05C751.582 573.05 751.167 573.132 750.795 573.298C750.435 573.45 750.125 573.664 749.862 573.94C749.6 574.217 749.393 574.541 749.241 574.914C749.089 575.273 748.999 575.66 748.972 576.074H755.124ZM756.823 579.057C756.588 580.259 756.07 581.163 755.269 581.771C754.468 582.379 753.46 582.682 752.245 582.682C751.388 582.682 750.643 582.544 750.007 582.268C749.386 581.992 748.861 581.605 748.433 581.108C748.005 580.611 747.68 580.017 747.459 579.327C747.252 578.636 747.135 577.883 747.107 577.068C747.107 576.254 747.231 575.508 747.48 574.831C747.729 574.154 748.074 573.568 748.516 573.07C748.972 572.573 749.503 572.186 750.111 571.91C750.732 571.634 751.409 571.496 752.141 571.496C753.094 571.496 753.881 571.696 754.503 572.097C755.138 572.483 755.642 572.981 756.015 573.588C756.402 574.196 756.664 574.859 756.802 575.577C756.954 576.295 757.016 576.979 756.989 577.628H748.972C748.958 578.097 749.013 578.546 749.137 578.974C749.262 579.389 749.462 579.762 749.738 580.093C750.014 580.411 750.366 580.666 750.795 580.859C751.223 581.053 751.727 581.149 752.307 581.149C753.053 581.149 753.66 580.977 754.13 580.632C754.613 580.286 754.931 579.762 755.083 579.057H756.823Z" fill="white"/>
<rect x="721.542" y="607.666" width="46.9406" height="46.9406" rx="9.71053" fill="#AEAEAE" fill-opacity="0.23" stroke="white" stroke-width="1.29474"/>
<path d="M744.762 628.121C744.541 627.072 744.05 626.285 743.291 625.76C742.545 625.235 741.654 624.973 740.618 624.973C739.735 624.973 738.975 625.138 738.34 625.47C737.718 625.801 737.2 626.25 736.786 626.816C736.385 627.369 736.089 628.004 735.895 628.722C735.702 629.44 735.605 630.186 735.605 630.959C735.605 631.802 735.702 632.603 735.895 633.362C736.089 634.108 736.385 634.764 736.786 635.33C737.2 635.883 737.725 636.325 738.36 636.656C738.996 636.988 739.755 637.153 740.639 637.153C741.288 637.153 741.861 637.05 742.359 636.843C742.87 636.622 743.305 636.325 743.664 635.952C744.037 635.565 744.327 635.109 744.534 634.585C744.741 634.06 744.865 633.494 744.907 632.886H746.875C746.681 634.75 746.039 636.2 744.948 637.236C743.857 638.272 742.365 638.79 740.473 638.79C739.327 638.79 738.326 638.597 737.47 638.21C736.613 637.809 735.902 637.264 735.336 636.573C734.77 635.883 734.342 635.068 734.052 634.129C733.775 633.19 733.637 632.182 733.637 631.104C733.637 630.027 733.789 629.019 734.093 628.08C734.397 627.127 734.839 626.298 735.419 625.594C736.013 624.89 736.745 624.337 737.615 623.937C738.499 623.522 739.507 623.315 740.639 623.315C741.413 623.315 742.144 623.419 742.835 623.626C743.526 623.833 744.14 624.137 744.679 624.537C745.217 624.938 745.666 625.442 746.025 626.05C746.384 626.644 746.619 627.334 746.73 628.121H744.762ZM757.889 638.458H756.231V636.76H756.19C755.817 637.423 755.341 637.913 754.761 638.231C754.181 638.534 753.497 638.686 752.71 638.686C752.005 638.686 751.419 638.597 750.949 638.417C750.479 638.224 750.1 637.954 749.81 637.609C749.52 637.264 749.312 636.856 749.188 636.387C749.078 635.904 749.022 635.372 749.022 634.792V627.748H750.783V634.999C750.783 635.662 750.977 636.187 751.363 636.573C751.75 636.96 752.282 637.153 752.958 637.153C753.497 637.153 753.96 637.071 754.346 636.905C754.747 636.739 755.078 636.504 755.341 636.2C755.603 635.897 755.796 635.544 755.921 635.144C756.059 634.73 756.128 634.281 756.128 633.797V627.748H757.889V638.458Z" fill="white"/>
</g>
<g clip-path="url(#clip7_2_998)">
<circle cx="295.021" cy="771.021" r="24.2715" fill="#5A5959" stroke="white" stroke-width="1.5"/>
<path d="M290.559 771.095H295.023C296.319 771.111 297.263 770.847 297.855 770.303C298.463 769.759 298.767 768.975 298.767 767.951C298.767 766.927 298.463 766.151 297.855 765.623C297.263 765.079 296.319 764.807 295.023 764.807H290.559V771.095ZM288.279 762.887H295.791C297.519 762.887 298.823 763.335 299.703 764.231C300.599 765.111 301.047 766.351 301.047 767.951C301.047 769.551 300.599 770.799 299.703 771.695C298.823 772.591 297.519 773.031 295.791 773.015H290.559V780.023H288.279V762.887Z" fill="white"/>
</g>
<defs>
<filter id="filter0_b_2_998" x="270.3" y="168.3" width="91.443" height="91.443" filterUnits="userSpaceOnUse" color-interpolation-filters="sRGB">
<feFlood flood-opacity="0" result="BackgroundImageFix"/>
<feGaussianBlur in="BackgroundImageFix" stdDeviation="10.35"/>
<feComposite in2="SourceAlpha" operator="in" result="effect1_backgroundBlur_2_998"/>
<feBlend mode="normal" in="SourceGraphic" in2="effect1_backgroundBlur_2_998" result="shape"/>
</filter>
<clipPath id="clip0_2_998">
<rect width="121.32" height="43.22" fill="white" transform="translate(562 328)"/>
</clipPath>
<clipPath id="clip1_2_998">
<rect width="121.32" height="43.22" fill="white" transform="translate(562 608)"/>
</clipPath>
<clipPath id="clip2_2_998">
<rect width="193.17" height="43.39" fill="white" transform="translate(137 671)"/>
</clipPath>
<clipPath id="clip3_2_998">
<rect width="162.98" height="43.39" fill="white" transform="translate(137 520)"/>
</clipPath>
<clipPath id="clip4_2_998">
<rect width="162.98" height="43.39" fill="white" transform="translate(137 520)"/>
</clipPath>
<clipPath id="clip5_2_998">
<rect width="209" height="332" fill="white" transform="translate(132 189)"/>
</clipPath>
<clipPath id="clip6_2_998">
<rect width="91.4947" height="328" fill="white" transform="translate(678.231 327)"/>
</clipPath>
<clipPath id="clip7_2_998">
<rect width="200" height="130" fill="white" transform="translate(120 666)"/>
</clipPath>
</defs>
</svg>
